<svg viewBox="0 0 280 280" xmlns="http://www.w3.org/2000/svg">
  <defs>
    <clipPath id="circle-ghost">
      <circle cx="140.0" cy="140.0" r="140.0" />
    </clipPath>
  </defs>
  <g clip-path="url(#circle-ghost)">
    <rect x="0" y="0" width="280" height="280" fill="#000000"/>
    <circle cx="0" cy="0" r="1" fill="none"/>
    <rect x="80" y="40" width="20" height="20" fill="#f5f5f5"/><rect x="100" y="40" width="20" height="20" fill="#f5f5f5"/><rect x="120" y="40" width="20" height="20" fill="#f5f5f5"/><rect x="140" y="40" width="20" height="20" fill="#f5f5f5"/><rect x="160" y="40" width="20" height="20" fill="#f5f5f5"/><rect x="180" y="40" width="20" height="20" fill="#f5f5f5"/><rect x="60" y="60" width="20" height="20" fill="#f5f5f5"/><rect x="60" y="80" width="20" height="20" fill="#f5f5f5"/><rect x="60" y="100" width="20" height="20" fill="#f5f5f5"/><rect x="60" y="120" width="20" height="20" fill="#f5f5f5"/><rect x="60" y="140" width="20" height="20" fill="#f5f5f5"/><rect x="60" y="160" width="20" height="20" fill="#f5f5f5"/><rect x="60" y="180" width="20" height="20" fill="#f5f5f5"/><rect x="80" y="60" width="20" height="20" fill="#f5f5f5"/><rect x="80" y="80" width="20" height="20" fill="#f5f5f5"/><rect x="80" y="100" width="20" height="20" fill="#f5f5f5"/><rect x="80" y="120" width="20" height="20" fill="#f5f5f5"/><rect x="80" y="140" width="20" height="20" fill="#f5f5f5"/><rect x="80" y="160" width="20" height="20" fill="#f5f5f5"/><rect x="80" y="180" width="20" height="20" fill="#f5f5f5"/><rect x="100" y="60" width="20" height="20" fill="#f5f5f5"/><rect x="100" y="80" width="20" height="20" fill="#f5f5f5"/><rect x="100" y="100" width="20" height="20" fill="#f5f5f5"/><rect x="100" y="120" width="20" height="20" fill="#f5f5f5"/><rect x="100" y="140" width="20" height="20" fill="#f5f5f5"/><rect x="100" y="160" width="20" height="20" fill="#f5f5f5"/><rect x="100" y="180" width="20" height="20" fill="#f5f5f5"/><rect x="120" y="60" width="20" height="20" fill="#f5f5f5"/><rect x="120" y="80" width="20" height="20" fill="#f5f5f5"/><rect x="120" y="100" width="20" height="20" fill="#f5f5f5"/><rect x="120" y="120" width="20" height="20" fill="#f5f5f5"/><rect x="120" y="140" width="20" height="20" fill="#f5f5f5"/><rect x="120" y="160" width="20" height="20" fill="#f5f5f5"/><rect x="120" y="180" width="20" height="20" fill="#f5f5f5"/><rect x="140" y="60" width="20" height="20" fill="#f5f5f5"/><rect x="140" y="80" width="20" height="20" fill="#f5f5f5"/><rect x="140" y="100" width="20" height="20" fill="#f5f5f5"/><rect x="140" y="120" width="20" height="20" fill="#f5f5f5"/><rect x="140" y="140" width="20" height="20" fill="#f5f5f5"/><rect x="140" y="160" width="20" height="20" fill="#f5f5f5"/><rect x="140" y="180" width="20" height="20" fill="#f5f5f5"/><rect x="160" y="60" width="20" height="20" fill="#f5f5f5"/><rect x="160" y="80" width="20" height="20" fill="#f5f5f5"/><rect x="160" y="100" width="20" height="20" fill="#f5f5f5"/><rect x="160" y="120" width="20" height="20" fill="#f5f5f5"/><rect x="160" y="140" width="20" height="20" fill="#f5f5f5"/><rect x="160" y="160" width="20" height="20" fill="#f5f5f5"/><rect x="160" y="180" width="20" height="20" fill="#f5f5f5"/><rect x="180" y="60" width="20" height="20" fill="#f5f5f5"/><rect x="180" y="80" width="20" height="20" fill="#f5f5f5"/><rect x="180" y="100" width="20" height="20" fill="#f5f5f5"/><rect x="180" y="120" width="20" height="20" fill="#f5f5f5"/><rect x="180" y="140" width="20" height="20" fill="#f5f5f5"/><rect x="180" y="160" width="20" height="20" fill="#f5f5f5"/><rect x="180" y="180" width="20" height="20" fill="#f5f5f5"/><rect x="200" y="60" width="20" height="20" fill="#f5f5f5"/><rect x="200" y="80" width="20" height="20" fill="#f5f5f5"/><rect x="200" y="100" width="20" height="20" fill="#f5f5f5"/><rect x="200" y="120" width="20" height="20" fill="#f5f5f5"/><rect x="200" y="140" width="20" height="20" fill="#f5f5f5"/><rect x="200" y="160" width="20" height="20" fill="#f5f5f5"/><rect x="200" y="180" width="20" height="20" fill="#f5f5f5"/><rect x="60" y="200" width="20" height="20" fill="#f5f5f5"/><rect x="80" y="200" width="20" height="20" fill="#f5f5f5"/><rect x="120" y="200" width="20" height="20" fill="#f5f5f5"/><rect x="140" y="200" width="20" height="20" fill="#f5f5f5"/><rect x="180" y="200" width="20" height="20" fill="#f5f5f5"/><rect x="200" y="200" width="20" height="20" fill="#f5f5f5"/><rect x="80" y="200" width="20" height="20" fill="#000000"/><rect x="100" y="200" width="20" height="20" fill="#000000"/><rect x="160" y="200" width="20" height="20" fill="#000000"/><rect x="180" y="200" width="20" height="20" fill="#000000"/><rect x="100" y="100" width="20" height="20" fill="#ef4444"/><rect x="100" y="120" width="20" height="20" fill="#ef4444"/><rect x="160" y="100" width="20" height="20" fill="#ef4444"/><rect x="160" y="120" width="20" height="20" fill="#ef4444"/>
  </g>
  <circle cx="140.0" cy="140.0" r="137.0" fill="none" stroke="#4ade80" stroke-opacity="0.4" stroke-width="3"/>
</svg>